<svg width="18" height="18" viewBox="0 0 18 18" fill="none" xmlns="http://www.w3.org/2000/svg">
<g clip-path="url(#clip0_511_2019)">
<path fill-rule="evenodd" clip-rule="evenodd" d="M9 0.75C4.2465 0.75 0 3.9195 0 8.25525C0 9.79275 0.55425 11.3025 1.53525 12.474L0.0405 17.25L5.25 15C6.52875 15.3293 7.7505 15.4808 8.898 15.4808C14.2785 15.4808 18 12.1515 18 8.25525C18 3.89625 13.7242 0.75 9 0.75ZM9 1.5C13.5487 1.5 17.25 4.53075 17.25 8.25525C17.25 11.9467 13.6597 14.7308 8.898 14.7308C7.48725 14.7308 6.34725 14.5065 5.1885 14.2095L1.245 15.9127L2.37375 12.3068C1.39275 11.1337 0.75 9.96075 0.75 8.25525C0.75 4.53075 4.45125 1.5 9 1.5ZM5.25 7.125C5.871 7.125 6.375 7.629 6.375 8.25C6.375 8.871 5.871 9.375 5.25 9.375C4.629 9.375 4.125 8.871 4.125 8.25C4.125 7.629 4.629 7.125 5.25 7.125ZM9 7.125C9.621 7.125 10.125 7.629 10.125 8.25C10.125 8.871 9.621 9.375 9 9.375C8.379 9.375 7.875 8.871 7.875 8.25C7.875 7.629 8.379 7.125 9 7.125ZM12.75 7.125C13.371 7.125 13.875 7.629 13.875 8.25C13.875 8.871 13.371 9.375 12.75 9.375C12.129 9.375 11.625 8.871 11.625 8.25C11.625 7.629 12.129 7.125 12.75 7.125Z" fill="#444444"/>
</g>
<defs>
<clipPath id="clip0_511_2019">
<rect width="18" height="18" fill="white"/>
</clipPath>
</defs>
</svg>
