<svg width="18" height="18" viewBox="0 0 18 18" fill="none" xmlns="http://www.w3.org/2000/svg">
<g clip-path="url(#clip0_511_2011)">
<path d="M14.8689 14.2458L13.5488 15.0621C13.4711 15.1101 13.4237 15.195 13.4237 15.2863V17.1944C13.4237 17.2389 13.3875 17.2751 13.343 17.2751H9.65176C9.65531 17.2487 9.65777 17.2218 9.65777 17.1944V15.5983L10.4557 15.0374C10.8168 14.7835 11.0325 14.3682 11.0326 13.9266V6.76081V5.41422V4.08757C11.0326 3.84538 11.1749 3.62369 11.3951 3.5228C11.4779 3.4849 11.5677 3.4663 11.6586 3.46683C11.998 3.46961 12.2741 3.75732 12.2741 4.10813V5.41422V9.11667C12.2741 9.26229 12.3921 9.38034 12.5378 9.38034C12.6834 9.38034 12.8014 9.26229 12.8014 9.11667V5.41422C12.8014 5.29839 12.8334 5.18554 12.894 5.08781C12.959 4.98304 13.0523 4.90057 13.164 4.84942C13.2452 4.81226 13.332 4.79342 13.4221 4.79342C13.4239 4.79342 13.4257 4.79345 13.4274 4.79345C13.7668 4.79623 14.043 5.08394 14.043 5.43475V6.69085C14.043 6.83647 14.161 6.95452 14.3066 6.95452C14.4523 6.95452 14.5703 6.83647 14.5703 6.69085V5.43475C14.5703 4.79553 14.0596 4.27129 13.4318 4.26616C13.2614 4.26493 13.0979 4.2997 12.9444 4.37001C12.8947 4.39279 12.847 4.41891 12.8015 4.44812V4.1081C12.8015 3.46887 12.2907 2.94463 11.6629 2.9395C11.4934 2.93796 11.3291 2.97304 11.1756 3.04335C10.7684 3.22988 10.5053 3.63976 10.5053 4.08757V4.44879C10.3261 4.3332 10.113 4.26612 9.88449 4.26612C9.71796 4.26612 9.55716 4.30107 9.40669 4.37004C9.24617 4.44359 9.10851 4.55222 9.00005 4.68384C8.8916 4.55222 8.75393 4.44359 8.59341 4.37004C8.44295 4.3011 8.28218 4.26612 8.11562 4.26612C7.88711 4.26612 7.67392 4.33327 7.49484 4.44879V4.08757C7.49484 3.63976 7.23174 3.22988 6.8245 3.04335C6.67101 2.97304 6.50765 2.93827 6.33718 2.9395C5.70941 2.94463 5.19864 3.46891 5.19864 4.10813V4.44816C5.15312 4.41891 5.10537 4.39279 5.05567 4.37001C4.90218 4.2997 4.73783 4.26458 4.56834 4.26616C3.94057 4.27129 3.4298 4.79553 3.4298 5.43475V9.7964C3.4298 9.94201 3.54782 10.0601 3.69347 10.0601C3.83912 10.0601 3.95713 9.94201 3.95713 9.7964V5.43475C3.95713 5.08394 4.23324 4.79623 4.57267 4.79345C4.66509 4.79219 4.75336 4.81152 4.83605 4.84938C4.94777 4.90057 5.04111 4.98301 5.10611 5.08781C5.16669 5.18547 5.19868 5.29832 5.19868 5.41419V9.11664C5.19868 9.26225 5.31669 9.3803 5.46234 9.3803C5.60799 9.3803 5.72601 9.26225 5.72601 9.11664V5.41422V4.10813C5.72601 3.75732 6.00215 3.46961 6.34154 3.46683C6.43315 3.4662 6.52224 3.4849 6.60496 3.5228C6.82524 3.62369 6.96755 3.84538 6.96755 4.08757V5.41422V9.11667C6.96755 9.26229 7.08557 9.38034 7.23121 9.38034C7.37686 9.38034 7.49488 9.26229 7.49488 9.11667V5.41422C7.49488 5.07192 7.77338 4.79345 8.11565 4.79345C8.20586 4.79345 8.29273 4.81229 8.3738 4.84942C8.59412 4.95035 8.73642 5.17204 8.73642 5.41422V6.74088V9.11667C8.73642 9.26229 8.85444 9.38034 9.00009 9.38034C9.14574 9.38034 9.26375 9.26229 9.26375 9.11667V6.74088C9.26375 6.40501 9.5368 6.12657 9.87243 6.12021C10.034 6.11733 10.1899 6.18015 10.3097 6.29771C10.434 6.41966 10.5053 6.58845 10.5053 6.76078V13.9266C10.5053 14.1967 10.3734 14.4507 10.1524 14.606L9.24252 15.2457C9.17228 15.2951 9.13051 15.3755 9.13051 15.4614V17.1944C9.13051 17.2389 9.0943 17.2751 9.0498 17.2751H4.657C4.6125 17.2751 4.57629 17.2389 4.57629 17.1944V15.2863C4.57629 15.195 4.52897 15.1101 4.45127 15.0621L0.616606 12.6911C0.544081 12.6412 0.511422 12.5513 0.535257 12.4663C0.586443 12.2838 0.707764 12.136 0.876861 12.0502C1.04592 11.9644 1.23678 11.9538 1.41439 12.0203L3.6009 12.8394C3.68187 12.8697 3.7726 12.8585 3.84362 12.8092C3.91466 12.7599 3.95706 12.679 3.95706 12.5925V10.9455C3.95706 10.7998 3.83905 10.6818 3.6934 10.6818C3.54775 10.6818 3.42973 10.7998 3.42973 10.9455V12.2121L1.59934 11.5265C1.28656 11.4094 0.936203 11.4288 0.638227 11.58C0.340286 11.7311 0.117682 12.0023 0.0274738 12.324C-0.0586215 12.6311 0.0620315 12.9559 0.327735 13.1323C0.330091 13.1338 0.332516 13.1354 0.334907 13.1369L4.04892 15.4333V17.1944C4.04892 17.5297 4.32169 17.8025 4.65697 17.8025H9.04969H13.343C13.6783 17.8025 13.951 17.5297 13.951 17.1944V15.4333L15.1461 14.6943C15.27 14.6178 15.3083 14.4553 15.2317 14.3314C15.1552 14.2076 14.9927 14.1693 14.8689 14.2458ZM9.86231 5.59299C9.64248 5.59717 9.43717 5.66439 9.26368 5.7771V5.41422C9.26368 5.17204 9.40602 4.95035 9.62631 4.84942C9.70738 4.81226 9.79421 4.79345 9.88445 4.79345C10.2267 4.79345 10.5052 5.07192 10.5052 5.41422V5.78051C10.3149 5.65419 10.093 5.58842 9.86231 5.59299Z" fill="#444444"/>
<path d="M14.1685 3.41275L14.8549 3.78813L15.2303 4.47451C15.2951 4.59294 15.4191 4.66652 15.5541 4.66652H15.5542C15.6891 4.66652 15.8132 4.59298 15.878 4.47451L16.2535 3.78813L16.9398 3.41275C17.0582 3.34799 17.1319 3.22389 17.1319 3.08889C17.1319 2.9539 17.0583 2.82976 16.9398 2.76501L16.2535 2.38962L15.878 1.70318C15.8133 1.58478 15.6892 1.51123 15.5542 1.51123C15.5542 1.51123 15.5542 1.51123 15.5541 1.51123C15.4192 1.51127 15.2951 1.58485 15.2303 1.70325L14.8549 2.38962L14.1686 2.76501C14.0501 2.8298 13.9765 2.9539 13.9766 3.08889C13.9765 3.22393 14.0501 3.34802 14.1685 3.41275ZM15.1757 2.81521C15.2199 2.79102 15.2563 2.75464 15.2805 2.71041L15.5541 2.21005L15.8278 2.71041C15.852 2.75467 15.8884 2.79102 15.9326 2.81521L16.4329 3.08889L15.9326 3.36254C15.8883 3.38673 15.852 3.42312 15.8278 3.46734L15.5542 3.96771L15.2805 3.46734C15.2563 3.42308 15.2199 3.3867 15.1757 3.36254L14.6753 3.08889L15.1757 2.81521Z" fill="#444444"/>
<path d="M7.61483 2.09875L8.30121 2.47417L8.67663 3.16051C8.74139 3.27894 8.86548 3.35252 9.00048 3.35252C9.13548 3.35252 9.25957 3.27894 9.32433 3.16051L9.69975 2.47413L10.3861 2.09875C10.5046 2.03399 10.5781 1.90989 10.5781 1.77489C10.5781 1.6399 10.5046 1.5158 10.3861 1.45104L9.69975 1.07566L9.32433 0.389284C9.25957 0.270846 9.13548 0.197266 9.00048 0.197266C8.86548 0.197266 8.74139 0.270846 8.67663 0.389284L8.30124 1.07566L7.61487 1.45104C7.49643 1.5158 7.42285 1.6399 7.42285 1.77489C7.42282 1.90989 7.4964 2.03399 7.61483 2.09875ZM8.62203 1.50125C8.66629 1.47706 8.70265 1.44067 8.72683 1.39645L9.00048 0.896118L9.27413 1.39645C9.29835 1.44071 9.3347 1.47706 9.37893 1.50125L9.87929 1.77493L9.37893 2.04858C9.33467 2.07277 9.29832 2.10915 9.27413 2.15338L9.00048 2.65371L8.72683 2.15338C8.70265 2.10912 8.66626 2.07277 8.62203 2.04858L8.12167 1.77493L8.62203 1.50125Z" fill="#444444"/>
<path d="M1.06018 3.41275L1.74652 3.78813L2.12198 4.47458C2.18677 4.59298 2.31087 4.66652 2.44583 4.66652H2.4459C2.58086 4.66649 2.70492 4.59291 2.76968 4.47451L3.1451 3.78813L3.83144 3.41275C3.94988 3.34799 4.02349 3.22389 4.02349 3.08889C4.02353 2.9539 3.94991 2.82976 3.83147 2.76501L3.1451 2.38962L2.76968 1.70325C2.70492 1.58481 2.58086 1.51127 2.4459 1.51123C2.44586 1.51123 2.44586 1.51123 2.44583 1.51123C2.31087 1.51123 2.18677 1.58478 2.12194 1.70325L1.74655 2.38962L1.06018 2.76504C0.941744 2.82984 0.868129 2.95393 0.868164 3.08893C0.868164 3.22393 0.941779 3.34802 1.06018 3.41275ZM2.06735 2.81521C2.11161 2.79102 2.14796 2.75464 2.17214 2.71041L2.44583 2.21005L2.71948 2.71041C2.74366 2.75467 2.78005 2.79102 2.82427 2.81521L3.3246 3.08889L2.82427 3.36254C2.78001 3.38673 2.74366 3.42312 2.71948 3.46734L2.44583 3.96771L2.17214 3.46734C2.14796 3.42308 2.11157 3.3867 2.06735 3.36254L1.56702 3.08889L2.06735 2.81521Z" fill="#444444"/>
<path d="M17.9726 12.3241C17.8823 12.0024 17.6597 11.7312 17.3618 11.58C17.0638 11.4289 16.7135 11.4094 16.4007 11.5266L14.5703 12.2123V7.84008C14.5703 7.69447 14.4523 7.57642 14.3066 7.57642C14.161 7.57642 14.043 7.69447 14.043 7.84008V12.5926C14.043 12.6791 14.0854 12.7601 14.1564 12.8093C14.2275 12.8585 14.3182 12.8699 14.3991 12.8396L16.5856 12.0205C16.7632 11.9539 16.9541 11.9646 17.1232 12.0503C17.2923 12.1361 17.4136 12.2839 17.4648 12.4665C17.4886 12.5515 17.456 12.6413 17.3834 12.6912L15.8307 13.6512C15.7069 13.7278 15.6685 13.8903 15.7451 14.0141C15.795 14.0948 15.8813 14.1392 15.9696 14.1392C16.0169 14.1392 16.0649 14.1264 16.1081 14.0997L17.6651 13.137C17.6675 13.1355 17.6699 13.1339 17.6723 13.1324C17.938 12.956 18.0587 12.6312 17.9726 12.3241Z" fill="#444444"/>
</g>
<defs>
<clipPath id="clip0_511_2011">
<rect width="18" height="18" fill="white"/>
</clipPath>
</defs>
</svg>
