<svg width="62" height="47" viewBox="0 0 62 47" fill="none" xmlns="http://www.w3.org/2000/svg">
<path d="M6 38H8.49598V20.4843C8.49598 18.1709 9.3548 16.1054 11.0725 14.2877C12.7901 12.5252 14.7762 11.6439 17.0306 11.6439C19.285 11.6439 21.2979 12.5252 23.0693 14.2877C24.7869 16.1054 25.6457 18.1709 25.6457 20.4843V38H28.1417V20.4843C28.1417 17.3447 27.0548 14.6595 24.8808 12.4288C22.7069 10.198 20.0902 9.08262 17.0306 9.08262C14.0247 9.08262 11.4348 10.198 9.26088 12.4288C7.08696 14.6595 6 17.3447 6 20.4843V38ZM46.8953 23.5H49.9146C51.9544 23.5 53.6452 22.8115 54.9871 21.4345C56.329 20.0575 57 18.3224 57 16.2293C57 14.3841 56.329 12.7317 54.9871 11.2721C53.5647 9.75736 51.8738 9 49.9146 9H37.314H34.818V38H37.314V23.5H43.876L52.4509 38H55.4702L46.8953 23.5ZM37.314 20.9387V11.6026H49.9146C51.1492 11.6026 52.2362 12.057 53.1755 12.9658C54.0612 13.8746 54.504 14.9625 54.504 16.2293C54.504 17.5513 54.0612 18.6667 53.1755 19.5755C52.2362 20.4843 51.1492 20.9387 49.9146 20.9387H37.314Z" fill="#6133B4"/>
</svg>
