<svg width="18" height="18" viewBox="0 0 18 18" fill="none" xmlns="http://www.w3.org/2000/svg">
<path d="M15.5184 8.95617C14.838 8.11396 12.9662 5.97267 12.3012 5.21333L11.0517 5.93442L14.3123 9.724C14.7477 10.2142 14.6329 10.931 14.0491 11.31C13.508 11.662 10.3104 13.7013 9.5789 14.1681C9.5271 13.6574 9.3283 13.1828 9.0007 12.7882C8.6731 12.3937 4.7209 7.56358 3.7346 6.28717C3.4049 5.86146 3.3314 5.40458 3.5267 5.00013C3.7143 4.61125 4.1161 4.34988 4.5284 4.34988C5.171 4.34988 5.514 4.81383 5.612 5.2105C5.7247 5.66454 5.5875 6.08246 5.1759 6.40404L6.1062 7.55438L11.5627 4.40513C12.5588 3.66067 12.8381 2.2865 12.2137 1.20842C11.7825 0.462542 10.9838 5.67302e-07 10.1312 5.67302e-07C9.2996 5.67302e-07 9.5761 -0.0113328 3.435 3.16979C2.5719 3.58842 2 4.43558 2 5.43788C2 6.05413 2.2156 6.68171 2.6223 7.1995C3.6205 8.47025 7.9143 13.7055 7.9535 13.7565C8.2132 14.1057 8.2524 14.5492 8.0585 14.9416C7.8646 15.3347 7.4901 15.5692 7.0582 15.5692C6.4149 15.5692 6.0719 15.1052 5.9739 14.7078C5.864 14.2623 5.9816 13.8522 6.3967 13.5363L5.5028 12.4419C4.9267 12.9129 4.6082 13.5015 4.5389 14.1716C4.3758 15.7335 5.6064 17 7.0687 17C7.4852 17 7.9864 16.8746 8.3567 16.6388L14.9556 12.427C15.6255 11.9567 16 11.1655 16 10.375C16 9.84796 15.832 9.34504 15.5184 8.95617ZM9.7133 1.52433C9.8449 1.46271 9.9926 1.42942 10.1396 1.42942C10.5127 1.42942 10.8382 1.62846 11.0104 1.96208C11.2288 2.38425 11.1679 3.00263 10.6275 3.31642L7.0582 5.36208C7.0232 4.59071 6.6536 3.88804 6.0404 3.42692L9.7133 1.52433Z" fill="#444444"/>
</svg>
