<svg width="19" height="19" viewBox="0 0 19 19" fill="none" xmlns="http://www.w3.org/2000/svg">
<path d="M13.461 4.88735L13.3433 4.14666L13.461 4.88735L13.5594 4.87171C14.5186 4.71922 15.2777 5.67104 14.9156 6.57225L14.8784 6.66471C14.4507 7.72921 14.7287 8.9474 15.576 9.7209C15.576 9.7209 15.576 9.7209 15.576 9.72091L15.6495 9.78809L15.6496 9.78809C16.3668 10.4429 16.0959 11.6298 15.1656 11.9086L15.0701 11.9372C13.9712 12.2665 13.1921 13.2434 13.1156 14.3881L13.1089 14.4875C13.0442 15.4566 11.9473 15.9848 11.1493 15.4313L11.0674 15.3745C10.1248 14.7206 8.87524 14.7206 7.9326 15.3745L7.85073 15.4313C7.0527 15.9848 5.95583 15.4566 5.89106 14.4875L5.88441 14.3881C5.8079 13.2434 5.02884 12.2665 3.9299 11.9372L3.83444 11.9086C2.90409 11.6298 2.63318 10.4429 3.35045 9.78809L3.42404 9.72091L2.91836 9.16702L3.42404 9.72091C4.27127 8.9474 4.54932 7.72921 4.12159 6.66471L4.08444 6.57225L3.38852 6.85187L4.08444 6.57225C3.72234 5.67104 4.48139 4.71922 5.44058 4.87171L5.53899 4.88735C6.67198 5.06748 7.79775 4.52533 8.36334 3.52722L8.41247 3.44052C8.89128 2.59553 10.1087 2.59552 10.5875 3.44052L10.6367 3.52722C11.2022 4.52533 12.328 5.06748 13.461 4.88735Z" stroke="#444444" stroke-width="1.5"/>
<circle cx="9.5" cy="9.5" r="1.75" stroke="#444444" stroke-width="1.5"/>
</svg>
