<svg width="18" height="18" viewBox="0 0 18 18" fill="none" xmlns="http://www.w3.org/2000/svg">
<path d="M9 9C8.00544 9 7.05161 8.60491 6.34835 7.90165C5.64509 7.19839 5.25 6.24456 5.25 5.25C5.25 4.25544 5.64509 3.30161 6.34835 2.59835C7.05161 1.89509 8.00544 1.5 9 1.5C9.99456 1.5 10.9484 1.89509 11.6517 2.59835C12.3549 3.30161 12.75 4.25544 12.75 5.25C12.75 6.24456 12.3549 7.19839 11.6517 7.90165C10.9484 8.60491 9.99456 9 9 9ZM9 7.5C9.29547 7.5 9.58806 7.4418 9.86104 7.32873C10.134 7.21566 10.3821 7.04992 10.591 6.84099C10.7999 6.63206 10.9657 6.38402 11.0787 6.11104C11.1918 5.83806 11.25 5.54547 11.25 5.25C11.25 4.95453 11.1918 4.66194 11.0787 4.38896C10.9657 4.11598 10.7999 3.86794 10.591 3.65901C10.3821 3.45008 10.134 3.28434 9.86104 3.17127C9.58806 3.0582 9.29547 3 9 3C8.40326 3 7.83097 3.23705 7.40901 3.65901C6.98705 4.08097 6.75 4.65326 6.75 5.25C6.75 5.84674 6.98705 6.41903 7.40901 6.84099C7.83097 7.26295 8.40326 7.5 9 7.5ZM15.75 15.75C15.75 15.9489 15.671 16.1397 15.5303 16.2803C15.3897 16.421 15.1989 16.5 15 16.5C14.8011 16.5 14.6103 16.421 14.4697 16.2803C14.329 16.1397 14.25 15.9489 14.25 15.75V14.25C14.25 13.6533 14.0129 13.081 13.591 12.659C13.169 12.2371 12.5967 12 12 12H6C5.40326 12 4.83097 12.2371 4.40901 12.659C3.98705 13.081 3.75 13.6533 3.75 14.25V15.75C3.75 15.9489 3.67098 16.1397 3.53033 16.2803C3.38968 16.421 3.19891 16.5 3 16.5C2.80109 16.5 2.61032 16.421 2.46967 16.2803C2.32902 16.1397 2.25 15.9489 2.25 15.75V14.25C2.25 13.2554 2.64509 12.3016 3.34835 11.5983C4.05161 10.8951 5.00544 10.5 6 10.5H12C12.9946 10.5 13.9484 10.8951 14.6517 11.5983C15.3549 12.3016 15.75 13.2554 15.75 14.25V15.75Z" fill="#444444"/>
</svg>
