<svg width="18" height="16" viewBox="0 0 18 16" fill="none" xmlns="http://www.w3.org/2000/svg">
<path d="M4.5 8C4.5 9.6545 5.8455 11 7.5 11C8.82075 11 9.9315 10.1367 10.3312 8.9495L11.9992 7.98125L12 8C12 10.4855 9.9855 12.5 7.5 12.5C5.0145 12.5 3 10.4855 3 8C3 5.5145 5.0145 3.5 7.5 3.5C8.313 3.5 9.0735 3.719 9.73125 4.0955L8.07375 5.05775C7.88775 5.02175 7.6965 5 7.5 5C5.8455 5 4.5 6.3455 4.5 8ZM7.5 6.5C6.67125 6.5 6 7.172 6 8C6 8.828 6.67125 9.5 7.5 9.5C8.32875 9.5 9 8.828 9 8L8.9985 7.98875L11.5185 6.52625C12.2505 6.1025 13.5465 6.27425 14.3018 6.6455L18 4.49825L15.6315 3.3215L15.7582 0.5975L12.0495 2.75C11.997 3.59075 11.499 4.802 10.7708 5.22575L8.2335 6.69875C8.016 6.5765 7.76775 6.5 7.5 6.5ZM13.4963 7.93325L13.5 8C13.5 11.3082 10.8083 14 7.5 14C4.19175 14 1.5 11.3082 1.5 8C1.5 4.69175 4.19175 2 7.5 2C8.60625 2 9.63975 2.306 10.5308 2.83025C10.7812 2.39075 10.8518 1.67225 10.6403 1.19525C9.684 0.7535 8.62275 0.5 7.5 0.5C3.35775 0.5 0 3.85775 0 8C0 12.1422 3.35775 15.5 7.5 15.5C11.4247 15.5 14.6408 12.4842 14.9678 8.6435C14.742 8.28125 14.1683 7.84775 13.4963 7.93325Z" fill="#444444"/>
</svg>
