<svg width="36" height="30" viewBox="0 0 36 30" fill="none" xmlns="http://www.w3.org/2000/svg">
<path d="M9 15C9 18.309 11.691 21 15 21C17.6415 21 19.863 19.2735 20.6625 16.899L23.9985 14.9625L24 15C24 19.971 19.971 24 15 24C10.029 24 6 19.971 6 15C6 10.029 10.029 6 15 6C16.626 6 18.147 6.438 19.4625 7.191L16.1475 9.1155C15.7755 9.0435 15.393 9 15 9C11.691 9 9 11.691 9 15ZM15 12C13.3425 12 12 13.344 12 15C12 16.656 13.3425 18 15 18C16.6575 18 18 16.656 18 15L17.997 14.9775L23.037 12.0525C24.501 11.205 27.093 11.5485 28.6035 12.291L36 7.9965L31.263 5.643L31.5165 0.195L24.099 4.5C23.994 6.1815 22.998 8.604 21.5415 9.4515L16.467 12.3975C16.032 12.153 15.5355 12 15 12ZM26.9925 14.8665L27 15C27 21.6165 21.6165 27 15 27C8.3835 27 3 21.6165 3 15C3 8.3835 8.3835 3 15 3C17.2125 3 19.2795 3.612 21.0615 4.6605C21.5625 3.7815 21.7035 2.3445 21.2805 1.3905C19.368 0.507 17.2455 0 15 0C6.7155 0 0 6.7155 0 15C0 23.2845 6.7155 30 15 30C22.8495 30 29.2815 23.9685 29.9355 16.287C29.484 15.5625 28.3365 14.6955 26.9925 14.8665Z" fill="#6133B4"/>
</svg>
